<svg viewBox="0 0 16 15" xmlns="http://www.w3.org/2000/svg">
<path d="M3 15H10C11.65 15 13 13.65 13 12V8.5C13 8.225 12.775 8 12.5 8C12.225 8 12 8.225 12 8.5V12C12 13.1 11.1 14 10 14H3C1.9 14 1 13.1 1 12V5C1 3.9 1.9 3 3 3H6.5C6.775 3 7 2.775 7 2.5C7 2.225 6.775 2 6.5 2H3C1.35 2 0 3.35 0 5V12C0 13.65 1.35 15 3 15Z"/>
<path d="M15.0031 4.88956V0.459909C15.0031 0.435703 15.0031 0.387292 15.0031 0.363086V0.33888C15.0031 0.314674 15.0031 0.290469 14.979 0.266263L14.9549 0.242057C14.9549 0.217852 14.9308 0.193646 14.9308 0.193646C14.9067 0.145234 14.8585 0.0968231 14.7863 0.0484116C14.7622 0.0242059 14.7381 0.0242058 14.714 0.0242058L14.6417 0H14.6176C14.5935 0 14.5453 0 14.5212 0H10.1118C9.84673 0 9.62987 0.217852 9.62987 0.484115C9.62987 0.750378 9.84673 0.968229 10.1118 0.968229H13.3646L6.30473 8.0121C6.11197 8.20574 6.11197 8.49621 6.30473 8.68986C6.49749 8.8835 6.78663 8.8835 6.97939 8.68986L14.0393 1.62178V4.88956C14.0393 5.15582 14.2562 5.37367 14.5212 5.37367C14.7863 5.37367 15.0031 5.15582 15.0031 4.88956Z"/>
</svg>
