<?xml version="1.0" encoding="UTF-8"?>
<svg viewBox="0 0 183 20" version="1.1" xmlns="http://www.w3.org/2000/svg" xmlns:xlink="http://www.w3.org/1999/xlink">
    <g id="Welcome" stroke="none" stroke-width="1" fill-rule="evenodd">
        <g id="Панель" transform="translate(-18.000000, -14.000000)">
            <g id="Page-1-Copy-3" transform="translate(18.000000, 13.000000)">
                <polygon id="Fill-1" points="125.348464 1.18836667 125.348464 17.2813667 136.532854 17.2813667 136.532854 14.6972 128.015036 14.6972 128.015036 10.3992 134.412906 10.3992 134.412906 7.82786667 128.015036 7.82786667 128.015036 3.75853333 136.548302 3.75853333 136.548302 1.1767"></polygon>
                <g id="Group-13" transform="translate(0.000000, 0.440883)">
                    <path d="M172.283686,14.2335667 L167.517368,14.2335667 L167.517368,10.1782333 L172.255167,10.1782333 C173.683518,10.2027333 174.45592,10.9214 174.493946,12.2747333 C174.467803,13.1310667 174.063777,14.1682333 172.283686,14.2335667 L172.283686,14.2335667 Z M171.558816,7.59523333 L167.517368,7.59523333 L167.517368,0.7259 L164.854362,0.7259 L164.854362,16.8282333 L171.543368,16.8282333 C175.133258,16.8282333 176.872946,15.3465667 176.872946,12.2992333 C176.872946,9.13406667 175.133258,7.59523333 171.558816,7.59523333 L171.558816,7.59523333 Z" id="Fill-2"></path>
                    <polygon id="Fill-4" points="180.025656 16.8408333 182.680344 16.8408333 182.680344 0.725666667 180.025656 0.725666667"></polygon>
                    <path d="M153.499925,14.0911167 L147.041451,14.0911167 C147.041451,14.0911167 148.92136,10.42545 149.242204,3.54328333 L153.499925,3.54328333 L153.499925,14.0911167 Z M156.164119,0.725783333 L146.883405,0.725783333 C147.14721,9.10828333 144.033834,14.0911167 144.033834,14.0911167 L142.169373,14.0911167 L142.169373,19.83345 L144.841886,19.83345 L144.841886,16.69395 L155.41073,16.69395 L155.41073,19.83345 L158.07849,19.83345 L158.07849,14.0911167 L156.164119,14.0911167 L156.164119,0.725783333 Z" id="Fill-6"></path>
                    <path d="M24.0226714,11.4912 C24.8235935,9.4472 26.8235221,4.1972 26.8235221,4.1972 C26.8235221,4.1972 28.6582753,9.18236667 29.5388143,11.4912 C28.329113,12.0127 25.7195805,12.2413667 24.0226714,11.4912 L24.0226714,11.4912 Z M25.3214961,0.768366667 L19.1315805,16.8695333 L21.9787753,16.8695333 C21.9787753,16.8695333 22.7547429,14.8990333 23.132626,13.8455333 C25.2121714,14.5513667 27.7777364,14.7193667 30.3433013,13.8455333 C30.6296844,14.5303667 31.4971519,16.8695333 31.4971519,16.8695333 L34.3253338,16.8613667 L28.1473013,0.768366667 L25.3214961,0.768366667 Z" id="Fill-7"></path>
                    <path d="M47.6049545,7.41475 L42.8707208,7.41475 L42.8707208,3.36058333 L47.6441688,3.36058333 C49.4147532,3.42708333 49.8211558,4.45958333 49.8508636,5.33458333 C49.8080844,6.67158333 49.0344935,7.39141667 47.6049545,7.41475 M46.8990974,0.76825 L40.202961,0.76825 L40.202961,16.8694167 L42.8707208,16.8694167 L42.8707208,10.0000833 L46.9169221,10.0000833 C50.4866104,10.0000833 52.2286753,8.46358333 52.2286753,5.29725 C52.2286753,2.24641667 50.4842338,0.76825 46.8990974,0.76825" id="Fill-8"></path>
                    <polygon id="Fill-9" points="56.9061078 3.34961667 62.2297442 3.34961667 62.2297442 16.8701167 64.8963156 16.8701167 64.8963156 3.34961667 70.2175753 3.34961667 70.2175753 0.767783333 56.9061078 0.767783333"></polygon>
                    <polygon id="Fill-10" points="79.1271799 11.4661167 79.1271799 0.767783333 76.4594201 0.767783333 76.4594201 16.8701167 77.1498292 16.8701167 87.5297318 6.05861667 87.5297318 16.8701167 90.1998682 16.8701167 90.1998682 0.767783333 89.4048877 0.767783333"></polygon>
                    <path d="M107.129032,7.41475 L102.391233,7.41475 C100.962882,7.39141667 100.191668,6.67158333 100.152454,5.31941667 C100.177408,4.45958333 100.586188,3.42708333 102.354395,3.36058333 L102.356772,3.36058333 L107.129032,3.36058333 L107.129032,7.41475 Z M97.5904539,5.29725 C97.5904539,7.59208333 98.6741942,9.01425 100.532714,9.63725 C100.532714,9.63725 100.678876,9.66758333 100.827415,9.73408333 C100.713337,10.7724167 99.5523565,13.8745833 96.832311,14.1954167 L96.832311,16.84375 C101.589123,16.70375 103.65322,11.7909167 103.73759,10.0000833 L107.129032,10.0000833 L107.129032,16.8694167 L109.795603,16.8694167 L109.795603,0.76825 L103.099467,0.76825 C99.5155188,0.76825 97.5904539,2.24641667 97.5904539,5.29725 L97.5904539,5.29725 Z" id="Fill-11"></path>
                    <polygon id="Fill-12" points="0 16.8574 2.67132468 16.8574 2.67132468 3.33456667 10.6532143 3.33456667 10.6532143 16.8574 13.3233506 16.8574 13.3233506 0.731733333 0 0.731733333"></polygon>
                </g>
            </g>
        </g>
    </g>
</svg>