<svg viewBox="0 0 84 12" xmlns="http://www.w3.org/2000/svg">
<path d="M4.764 9H5.724V3.6H0.864V9H1.824V4.5H4.764V9ZM7.46166 11.4H8.42166V8.748C8.80566 9 9.36966 9.12 9.94566 9.12C11.6377 9.12 12.7537 7.86 12.7537 6.216C12.7537 4.62 11.7937 3.48 10.2577 3.48C9.51366 3.48 8.79366 3.804 8.42166 4.236V3.6H7.46166V11.4ZM9.98166 4.38C11.0977 4.38 11.7337 5.16 11.7337 6.252C11.7337 7.392 11.0137 8.22 9.86166 8.22C9.34566 8.22 8.90166 8.124 8.42166 7.8V5.124C8.75766 4.704 9.34566 4.38 9.98166 4.38ZM13.7696 6.3C13.7696 7.92 14.9216 9.12 16.6496 9.12C18.3776 9.12 19.5296 7.92 19.5296 6.3C19.5296 4.68 18.3776 3.48 16.6496 3.48C14.9216 3.48 13.7696 4.68 13.7696 6.3ZM14.7896 6.3C14.7896 5.16 15.5936 4.38 16.6496 4.38C17.7296 4.38 18.5096 5.172 18.5096 6.3C18.5096 7.452 17.7296 8.22 16.6496 8.22C15.5696 8.22 14.7896 7.428 14.7896 6.3ZM25.1748 7.656C24.8268 7.98 24.2148 8.22 23.5188 8.22C22.4628 8.22 21.7188 7.62 21.6348 6.6H25.7868C25.8228 6.432 25.8468 6.216 25.8468 5.952C25.8468 4.464 24.7308 3.48 23.3388 3.48C21.5628 3.48 20.5548 4.728 20.5548 6.3C20.5548 8.004 21.6948 9.12 23.4468 9.12C24.1668 9.12 24.9468 8.892 25.4748 8.412L25.1748 7.656ZM23.2908 4.38C24.2268 4.38 24.8028 4.932 24.8508 5.82H21.5748C21.6828 4.992 22.3068 4.38 23.2908 4.38ZM31.8772 3.6H30.6172L28.3372 6.24L30.7732 9H32.1052L29.5132 6.18L31.8772 3.6ZM27.1492 9H28.1092V3.6H27.1492V9ZM32.4417 4.56H34.4217V9H35.3817V4.56H37.3617V3.6H32.4417V4.56ZM45.4382 9H46.4582V0.599999C45.9662 0.599999 45.0542 0.564 44.4902 0.564C42.2222 0.564 41.2142 1.836 41.2142 3.348C41.2142 4.548 42.0062 5.352 42.8702 5.7L40.5422 9H41.6942L43.8662 5.88H45.4382V9ZM43.7462 4.92C43.0142 4.8 42.2942 4.176 42.2942 3.288C42.2942 2.292 42.9902 1.524 44.2982 1.524C44.6582 1.524 45.1622 1.548 45.4382 1.56V4.92H43.7462ZM52.5428 9H53.5028V3.6H52.5428V5.82H49.5428V3.6H48.5828V9H49.5428V6.72H52.5428V9ZM54.495 10.32H55.395V9H59.763V10.32H60.663V8.1H59.763V3.6H56.079L55.995 5.028C55.899 6.504 55.527 7.644 55.167 8.1H54.495V10.32ZM56.919 5.4L56.979 4.5H58.803V8.1H56.187C56.439 7.764 56.799 6.78 56.919 5.4ZM65.9678 7.656C65.6198 7.98 65.0078 8.22 64.3118 8.22C63.2558 8.22 62.5118 7.62 62.4277 6.6H66.5798C66.6158 6.432 66.6398 6.216 66.6398 5.952C66.6398 4.464 65.5238 3.48 64.1318 3.48C62.3558 3.48 61.3478 4.728 61.3478 6.3C61.3478 8.004 62.4878 9.12 64.2398 9.12C64.9598 9.12 65.7398 8.892 66.2678 8.412L65.9678 7.656ZM64.0838 4.38C65.0198 4.38 65.5958 4.932 65.6438 5.82H62.3678C62.4758 4.992 63.0998 4.38 64.0838 4.38ZM72.6701 3.6H71.4101L69.1301 6.24L71.5661 9H72.8981L70.3061 6.18L72.6701 3.6ZM67.9421 9H68.9021V3.6H67.9421V9ZM77.7777 7.524C77.4177 7.932 76.8777 8.22 76.2297 8.22C75.1617 8.22 74.2857 7.488 74.2857 6.3C74.2857 5.16 75.1617 4.38 76.1337 4.38C76.6977 4.38 77.2257 4.524 77.6817 4.944L78.1257 4.188C77.6217 3.684 76.8657 3.48 76.0017 3.48C74.4177 3.48 73.2657 4.728 73.2657 6.3C73.2657 8.004 74.4417 9.12 76.1577 9.12C76.9857 9.12 77.7777 8.808 78.2337 8.22L77.7777 7.524ZM79.7731 4.74C80.2051 4.512 80.6011 4.344 81.2611 4.344C82.3291 4.344 82.4851 5.04 82.4851 6.048C82.1251 5.784 81.5611 5.7 81.1411 5.7C79.9771 5.7 79.1011 6.312 79.1011 7.416C79.1011 8.46 79.7731 9.084 80.7571 9.084C81.6451 9.084 82.1611 8.712 82.4851 8.304V9H83.3971V5.688C83.3971 4.284 82.8571 3.48 81.3211 3.48C80.6491 3.48 80.0011 3.672 79.5211 3.972L79.7731 4.74ZM81.0931 8.22C80.4691 8.22 80.1211 7.884 80.1211 7.368C80.1211 6.744 80.6971 6.48 81.2731 6.48C81.7411 6.48 82.1491 6.6 82.4851 6.84V7.524C82.2091 7.848 81.8011 8.22 81.0931 8.22Z"/>
</svg>
