<svg viewBox="0 0 72 28" xmlns="http://www.w3.org/2000/svg">
  <path d="M7.2 14.7767L3.03673 24H0L4.5551 14.1489C2.4 13.0865 0.979592 11.1066 0.979592 7.5332C0.979592 2.51107 4.21224 0 8.08163 0H12V24H9.3551V14.7767H7.2ZM9.40408 2.17304H7.98367C5.87755 2.17304 3.82041 3.57344 3.82041 7.5332C3.82041 11.3964 5.68163 12.6519 7.98367 12.6519H9.40408V2.17304Z"/>
  <path d="M25.0928 7.19811V24.533H22.4948V16.8066H18.5979V24.5825H16V7.24764H18.5979V14.6274H22.4948V7.19811H25.0928ZM38.5155 28H36.1581V24.5825H28.9416V28H26.5842V22.3538H27.6426C29.1821 18.6887 29.3265 13.2901 29.3265 8.68396V7.19811H37.1684V22.3538H38.5155V28ZM34.5704 9.37736H31.6839V9.67453C31.6839 13.3396 31.5395 18.6392 30.0962 22.3538H34.5704V9.37736ZM45.6839 24.8302C42.2199 24.8302 40.055 21.9575 40.055 16.658C40.055 11.0613 41.5464 7 45.1546 7C47.945 7 49.8213 9.17925 49.8213 15.0731V16.559H42.7973C42.7973 20.4717 43.8557 22.5519 45.9244 22.5519C47.4158 22.5519 48.5705 21.8585 49.244 21.3632L49.8694 23.4434C48.7629 24.2854 47.3677 24.8302 45.6839 24.8302ZM42.7973 14.3302H47.1271C47.1271 11.3585 46.6461 9.17924 45.1546 9.17924C43.567 9.17924 42.9897 11.2099 42.7973 14.3302ZM55.1134 15.9151V24.5825H52.5155V7.24764H55.1134V15.2217L59.1546 7.19811H61.8007L57.6151 15.3703L62.378 24.5825H59.5395L55.1134 15.9151ZM62.7148 15.9151C62.7148 10.467 64.7354 7 68.6804 7C70.1718 7 71.0378 7.39623 71.8076 7.89151L71.4227 10.4175C70.701 9.77358 69.7388 9.22877 68.6323 9.22877C66.756 9.22877 65.4089 11.408 65.4089 15.7665C65.4089 20.125 66.4192 22.6014 68.5361 22.6014C69.7869 22.6014 70.7973 22.1061 71.3746 21.5118L72 23.4929C71.0859 24.2854 70.0275 24.7807 68.488 24.7807C64.8797 24.8302 62.7148 21.809 62.7148 15.9151Z"/>
</svg>
